<svg width="12" height="8" viewBox="0 0 12 8" fill="none" xmlns="http://www.w3.org/2000/svg">
<path d="M6.42461 7.2751C6.29128 7.2751 6.16194 7.2501 6.03661 7.2001C5.91128 7.1501 5.80728 7.08343 5.72461 7.0001L1.12461 2.4001C0.941276 2.21676 0.849609 1.98343 0.849609 1.7001C0.849609 1.41676 0.941276 1.18343 1.12461 1.0001C1.30794 0.816764 1.54128 0.725098 1.82461 0.725098C2.10794 0.725098 2.34128 0.816764 2.52461 1.0001L6.42461 4.9001L10.3246 1.0001C10.5079 0.816764 10.7413 0.725098 11.0246 0.725098C11.3079 0.725098 11.5413 0.816764 11.7246 1.0001C11.9079 1.18343 11.9996 1.41676 11.9996 1.7001C11.9996 1.98343 11.9079 2.21676 11.7246 2.4001L7.12461 7.0001C7.02461 7.1001 6.91628 7.1711 6.79961 7.2131C6.68294 7.2551 6.55794 7.27576 6.42461 7.2751Z" fill="white"/>
</svg>
