<svg width="35" height="32" viewBox="0 0 35 32" fill="none" xmlns="http://www.w3.org/2000/svg">
<mask id="path-1-outside-1_133_112" maskUnits="userSpaceOnUse" x="0" y="0" width="35" height="32" fill="black">
<rect fill="white" width="35" height="32"/>
<path d="M20.2234 31.4614H8.88803V30.0768H20.2175C21.9853 30.0736 23.5854 29.4114 24.7464 28.3417L31.7954 21.8204C32.2192 21.4365 32.4818 20.9018 32.4818 20.3103C32.4818 19.1434 31.4593 18.1974 30.1979 18.1974C29.5616 18.1974 28.9861 18.4382 28.5719 18.8267L20.632 26.1722H18.9603V24.7877C20.1241 24.7856 21.0666 23.9123 21.0666 22.8353C21.0666 22.7244 21.0567 22.6155 21.0374 22.5096L21.0391 22.5211C20.8132 21.5777 19.9167 20.8826 18.8448 20.8826C18.827 20.8826 18.8092 20.8828 18.7915 20.8832L18.7942 20.8831H13.0082L11.4592 20.1742C10.6526 19.7973 9.70111 19.5766 8.69386 19.5766C7.20577 19.5766 5.83922 20.0584 4.76656 20.8625L4.77826 20.854C3.38265 21.8892 2.49671 23.4665 2.49671 25.2351C2.49671 25.2648 2.49696 25.2943 2.49745 25.3238L2.49738 25.3194V25.48H1.00074V25.3318C1.00026 25.3027 1 25.2683 1 25.2338C1 23.0299 2.10456 21.0647 3.82943 19.786L3.84432 19.7753C5.1598 18.7894 6.85387 18.1925 8.69868 18.1925C9.94786 18.1925 11.1279 18.4662 12.1726 18.9523L12.1281 18.9335L13.3629 19.4985H18.7776C18.7989 19.498 18.8241 19.4979 18.8493 19.4979C20.6446 19.4979 22.1446 20.6676 22.5072 22.2283L22.5117 22.2511V22.2774C22.5227 22.3355 22.5317 22.3936 22.5387 22.4518L27.5165 17.8466C28.2034 17.197 29.1606 16.7942 30.2195 16.7942C32.3074 16.7942 34 18.3601 34 20.2918C34 21.2756 33.561 22.1645 32.8543 22.8L32.8534 22.8008L25.8058 29.3209C24.3747 30.6393 22.4027 31.4561 20.2245 31.4615H20.2233L20.2234 31.4614ZM18.9004 26.1722H11.7465V24.7876H18.9005L18.9004 26.1722ZM17.4637 1C22.6131 1 26.7876 4.86205 26.7876 9.62611C26.7876 14.3902 22.6131 18.2523 17.4637 18.2523C12.3142 18.2523 8.13968 14.3902 8.13968 9.62611C8.14563 4.86428 12.3166 1.00553 17.4631 1.00003L17.4637 1ZM17.4637 16.8676C21.7866 16.8676 25.291 13.6255 25.291 9.62611C25.291 5.62674 21.7865 2.38468 17.4637 2.38468C13.1407 2.38468 9.63629 5.62686 9.63629 9.6262C9.64144 13.6237 13.1428 16.863 17.4632 16.8677H17.4637L17.4637 16.8676ZM17.4637 1C18.2494 1 19.3614 1.48459 20.195 3.79691C20.7522 5.44864 21.0732 7.34781 21.0732 9.31635C21.0732 9.42522 21.0722 9.53398 21.0703 9.64247L21.0705 9.62617C21.0722 9.71832 21.0732 9.82702 21.0732 9.93596C21.0732 11.9045 20.7522 13.8036 20.156 15.5911L20.1949 15.4554C19.3613 17.7676 18.2493 18.2523 17.4636 18.2523C16.6779 18.2523 15.5659 17.7677 14.7323 15.4554C14.175 13.8036 13.854 11.9045 13.854 9.93593C13.854 9.82705 13.855 9.71829 13.8569 9.6098L13.8567 9.62617C13.855 9.53395 13.854 9.42528 13.854 9.31635C13.854 7.34784 14.175 5.44867 14.7712 3.66124L14.7323 3.79694C15.5659 1.48468 16.6779 1.00003 17.4636 1.00003L17.4637 1ZM17.4637 16.8676C17.7226 16.8676 18.2853 16.3747 18.7747 15.0178C19.2837 13.4972 19.5768 11.7492 19.5768 9.9378C19.5768 9.82821 19.5758 9.71886 19.5736 9.60969L19.5739 9.62605C19.5758 9.53329 19.5768 9.42391 19.5768 9.31429C19.5768 7.50297 19.2837 5.75492 18.7389 4.10861L18.7747 4.23438C18.2853 2.87745 17.7226 2.38454 17.4637 2.38454C17.2047 2.38454 16.642 2.87745 16.1526 4.23438C15.6436 5.75489 15.3505 7.50291 15.3505 9.31435C15.3505 9.42391 15.3515 9.53329 15.3537 9.64247L15.3534 9.62611C15.3515 9.71883 15.3505 9.82821 15.3505 9.9378C15.3505 11.7492 15.6436 13.4972 16.1884 15.1435L16.1526 15.0177C16.642 16.3691 17.2047 16.8676 17.4637 16.8676ZM26.0393 10.3184H8.88794V8.93388H26.0392L26.0393 10.3184Z"/>
</mask>
<path d="M20.2234 31.4614H8.88803V30.0768H20.2175C21.9853 30.0736 23.5854 29.4114 24.7464 28.3417L31.7954 21.8204C32.2192 21.4365 32.4818 20.9018 32.4818 20.3103C32.4818 19.1434 31.4593 18.1974 30.1979 18.1974C29.5616 18.1974 28.9861 18.4382 28.5719 18.8267L20.632 26.1722H18.9603V24.7877C20.1241 24.7856 21.0666 23.9123 21.0666 22.8353C21.0666 22.7244 21.0567 22.6155 21.0374 22.5096L21.0391 22.5211C20.8132 21.5777 19.9167 20.8826 18.8448 20.8826C18.827 20.8826 18.8092 20.8828 18.7915 20.8832L18.7942 20.8831H13.0082L11.4592 20.1742C10.6526 19.7973 9.70111 19.5766 8.69386 19.5766C7.20577 19.5766 5.83922 20.0584 4.76656 20.8625L4.77826 20.854C3.38265 21.8892 2.49671 23.4665 2.49671 25.2351C2.49671 25.2648 2.49696 25.2943 2.49745 25.3238L2.49738 25.3194V25.48H1.00074V25.3318C1.00026 25.3027 1 25.2683 1 25.2338C1 23.0299 2.10456 21.0647 3.82943 19.786L3.84432 19.7753C5.1598 18.7894 6.85387 18.1925 8.69868 18.1925C9.94786 18.1925 11.1279 18.4662 12.1726 18.9523L12.1281 18.9335L13.3629 19.4985H18.7776C18.7989 19.498 18.8241 19.4979 18.8493 19.4979C20.6446 19.4979 22.1446 20.6676 22.5072 22.2283L22.5117 22.2511V22.2774C22.5227 22.3355 22.5317 22.3936 22.5387 22.4518L27.5165 17.8466C28.2034 17.197 29.1606 16.7942 30.2195 16.7942C32.3074 16.7942 34 18.3601 34 20.2918C34 21.2756 33.561 22.1645 32.8543 22.8L32.8534 22.8008L25.8058 29.3209C24.3747 30.6393 22.4027 31.4561 20.2245 31.4615H20.2233L20.2234 31.4614ZM18.9004 26.1722H11.7465V24.7876H18.9005L18.9004 26.1722ZM17.4637 1C22.6131 1 26.7876 4.86205 26.7876 9.62611C26.7876 14.3902 22.6131 18.2523 17.4637 18.2523C12.3142 18.2523 8.13968 14.3902 8.13968 9.62611C8.14563 4.86428 12.3166 1.00553 17.4631 1.00003L17.4637 1ZM17.4637 16.8676C21.7866 16.8676 25.291 13.6255 25.291 9.62611C25.291 5.62674 21.7865 2.38468 17.4637 2.38468C13.1407 2.38468 9.63629 5.62686 9.63629 9.6262C9.64144 13.6237 13.1428 16.863 17.4632 16.8677H17.4637L17.4637 16.8676ZM17.4637 1C18.2494 1 19.3614 1.48459 20.195 3.79691C20.7522 5.44864 21.0732 7.34781 21.0732 9.31635C21.0732 9.42522 21.0722 9.53398 21.0703 9.64247L21.0705 9.62617C21.0722 9.71832 21.0732 9.82702 21.0732 9.93596C21.0732 11.9045 20.7522 13.8036 20.156 15.5911L20.1949 15.4554C19.3613 17.7676 18.2493 18.2523 17.4636 18.2523C16.6779 18.2523 15.5659 17.7677 14.7323 15.4554C14.175 13.8036 13.854 11.9045 13.854 9.93593C13.854 9.82705 13.855 9.71829 13.8569 9.6098L13.8567 9.62617C13.855 9.53395 13.854 9.42528 13.854 9.31635C13.854 7.34784 14.175 5.44867 14.7712 3.66124L14.7323 3.79694C15.5659 1.48468 16.6779 1.00003 17.4636 1.00003L17.4637 1ZM17.4637 16.8676C17.7226 16.8676 18.2853 16.3747 18.7747 15.0178C19.2837 13.4972 19.5768 11.7492 19.5768 9.9378C19.5768 9.82821 19.5758 9.71886 19.5736 9.60969L19.5739 9.62605C19.5758 9.53329 19.5768 9.42391 19.5768 9.31429C19.5768 7.50297 19.2837 5.75492 18.7389 4.10861L18.7747 4.23438C18.2853 2.87745 17.7226 2.38454 17.4637 2.38454C17.2047 2.38454 16.642 2.87745 16.1526 4.23438C15.6436 5.75489 15.3505 7.50291 15.3505 9.31435C15.3505 9.42391 15.3515 9.53329 15.3537 9.64247L15.3534 9.62611C15.3515 9.71883 15.3505 9.82821 15.3505 9.9378C15.3505 11.7492 15.6436 13.4972 16.1884 15.1435L16.1526 15.0177C16.642 16.3691 17.2047 16.8676 17.4637 16.8676ZM26.0393 10.3184H8.88794V8.93388H26.0392L26.0393 10.3184Z" fill="white"/>
<path d="M20.2234 31.4614L20.5354 31.7118L21.0573 31.0614H20.2234V31.4614ZM8.88803 31.4614H8.48803V31.8614H8.88803V31.4614ZM8.88803 30.0768V29.6768H8.48803V30.0768H8.88803ZM20.2175 30.0768L20.2175 30.4768L20.2182 30.4768L20.2175 30.0768ZM24.7464 28.3417L25.0175 28.6359L25.0181 28.6353L24.7464 28.3417ZM31.7954 21.8204L31.5268 21.5239L31.5237 21.5268L31.7954 21.8204ZM28.5719 18.8267L28.8436 19.1203L28.8456 19.1184L28.5719 18.8267ZM20.632 26.1722V26.5722H20.7886L20.9036 26.4659L20.632 26.1722ZM18.9603 26.1722H18.5603V26.5722H18.9603V26.1722ZM18.9603 24.7877L18.9596 24.3877L18.5603 24.3884V24.7877H18.9603ZM21.0374 22.5096L21.4309 22.4379L20.6417 22.5685L21.0374 22.5096ZM21.0391 22.5211L20.6501 22.6142L21.4347 22.4622L21.0391 22.5211ZM18.7915 20.8832L18.778 20.4834L18.801 21.2831L18.7915 20.8832ZM18.7942 20.8831L18.8078 21.2828L18.7942 20.4831V20.8831ZM13.0082 20.8831L12.8417 21.2468L12.921 21.2831H13.0082V20.8831ZM11.4592 20.1742L11.2898 20.5366L11.2927 20.5379L11.4592 20.1742ZM4.76656 20.8625L4.52663 20.5424L5.00123 21.1864L4.76656 20.8625ZM4.77826 20.854L5.01657 21.1753L4.54359 20.5301L4.77826 20.854ZM2.49745 25.3238L2.0975 25.3304L2.89741 25.3181L2.49745 25.3238ZM2.49738 25.3194L2.89734 25.3136L2.09738 25.3194H2.49738ZM2.49738 25.48V25.88H2.89738V25.48H2.49738ZM1.00074 25.48H0.60074V25.88H1.00074V25.48ZM1.00074 25.3318L1.40079 25.3318L1.40068 25.3252L1.00074 25.3318ZM3.82943 19.786L3.59583 19.4613L3.59122 19.4647L3.82943 19.786ZM3.84432 19.7753L4.07794 20.1001L4.08421 20.0954L3.84432 19.7753ZM12.1726 18.9523L12.0173 19.3209L12.3414 18.5896L12.1726 18.9523ZM12.1281 18.9335L12.2835 18.5649L11.9617 19.2973L12.1281 18.9335ZM13.3629 19.4985L13.1964 19.8622L13.2757 19.8985H13.3629V19.4985ZM18.7776 19.4985V19.8985L18.7854 19.8984L18.7776 19.4985ZM22.5072 22.2283L22.8998 22.1518L22.8985 22.1447L22.8969 22.1378L22.5072 22.2283ZM22.5117 22.2511H22.9117V22.2124L22.9043 22.1745L22.5117 22.2511ZM22.5117 22.2774H22.1117V22.3149L22.1187 22.3517L22.5117 22.2774ZM22.5387 22.4518L22.1416 22.4996L22.2353 23.2775L22.8103 22.7454L22.5387 22.4518ZM27.5165 17.8466L27.7881 18.1402L27.7913 18.1372L27.5165 17.8466ZM32.8543 22.8L33.1204 23.0986L33.1218 23.0974L32.8543 22.8ZM32.8534 22.8008L32.5873 22.5021L32.5817 22.5072L32.8534 22.8008ZM25.8058 29.3209L26.0768 29.6151L26.0774 29.6145L25.8058 29.3209ZM20.2245 31.4615L20.2245 31.8615L20.2255 31.8615L20.2245 31.4615ZM20.2233 31.4615L19.9114 31.2112L19.3895 31.8615H20.2233V31.4615ZM18.9004 26.1722V26.5722H19.3004L19.3004 26.1723L18.9004 26.1722ZM11.7465 26.1722H11.3465V26.5722H11.7465V26.1722ZM11.7465 24.7876V24.3876H11.3465V24.7876H11.7465ZM18.9005 24.7876L19.3005 24.7876L19.3005 24.3876H18.9005V24.7876ZM17.4637 1V0.6H17.4534L17.4431 0.600526L17.4637 1ZM8.13968 9.62611L7.73968 9.62561V9.62611H8.13968ZM17.4631 1.00003L17.4635 1.40003L17.4735 1.40002L17.4836 1.3995L17.4631 1.00003ZM9.63629 9.6262L9.23629 9.6262L9.23629 9.62671L9.63629 9.6262ZM17.4632 16.8677L17.4628 17.2677H17.4632V16.8677ZM17.4637 16.8677V17.2677H17.9632L17.854 16.7803L17.4637 16.8677ZM20.195 3.79691L20.5741 3.66902L20.5713 3.66126L20.195 3.79691ZM21.0703 9.64247L20.6703 9.6377L21.4702 9.64958L21.0703 9.64247ZM21.0705 9.62617L21.4704 9.61863L20.6705 9.6214L21.0705 9.62617ZM20.156 15.5911L19.7715 15.4807L20.5354 15.7176L20.156 15.5911ZM20.1949 15.4554L20.5794 15.5658L19.8187 15.3197L20.1949 15.4554ZM14.7323 15.4554L14.3532 15.5832L14.356 15.591L14.7323 15.4554ZM13.8569 9.6098L14.2569 9.61453L13.457 9.60269L13.8569 9.6098ZM13.8567 9.62617L13.4568 9.6337L14.2567 9.63089L13.8567 9.62617ZM14.7712 3.66124L15.1557 3.77147L14.3917 3.53467L14.7712 3.66124ZM14.7323 3.79694L14.3478 3.68671L15.1086 3.9326L14.7323 3.79694ZM17.4636 1.00003V1.40003H17.551L17.6305 1.36355L17.4636 1.00003ZM18.7747 15.0178L19.1511 15.1535L19.154 15.1447L18.7747 15.0178ZM19.5736 9.60969L19.9736 9.60179L19.1737 9.61597L19.5736 9.60969ZM19.5739 9.62605L19.1739 9.63233L19.9738 9.63437L19.5739 9.62605ZM18.7389 4.10861L19.1187 3.98295L18.3542 4.21808L18.7389 4.10861ZM18.7747 4.23438L18.3984 4.37009L19.1594 4.12491L18.7747 4.23438ZM16.1526 4.23438L15.7762 4.09863L15.7733 4.1074L16.1526 4.23438ZM15.3537 9.64247L14.9537 9.65036L15.7536 9.63616L15.3537 9.64247ZM15.3534 9.62611L15.7534 9.6198L14.9535 9.61779L15.3534 9.62611ZM16.1884 15.1435L15.8086 15.2692L16.5731 15.034L16.1884 15.1435ZM16.1526 15.0177L16.5287 14.8815L15.7679 15.1272L16.1526 15.0177ZM26.0393 10.3184V10.7184H26.4393L26.4393 10.3184L26.0393 10.3184ZM8.88794 10.3184H8.48794V10.7184H8.88794V10.3184ZM8.88794 8.93388V8.53388H8.48794V8.93388H8.88794ZM26.0392 8.93388L26.4392 8.93386L26.4392 8.53388H26.0392V8.93388ZM20.2234 31.0614H8.88803V31.8614H20.2234V31.0614ZM9.28803 31.4614V30.0768H8.48803V31.4614H9.28803ZM8.88803 30.4768H20.2175V29.6768H8.88803V30.4768ZM20.2182 30.4768C22.0861 30.4735 23.7827 29.7736 25.0175 28.6359L24.4754 28.0475C23.3882 29.0493 21.8846 29.6738 20.2167 29.6768L20.2182 30.4768ZM25.0181 28.6353L32.067 22.114L31.5237 21.5268L24.4748 28.0481L25.0181 28.6353ZM32.0639 22.1169C32.5638 21.664 32.8818 21.0246 32.8818 20.3103H32.0818C32.0818 20.779 31.8745 21.209 31.5268 21.524L32.0639 22.1169ZM32.8818 20.3103C32.8818 18.8937 31.6504 17.7974 30.1979 17.7974V18.5974C31.2683 18.5974 32.0818 19.393 32.0818 20.3103H32.8818ZM30.1979 17.7974C29.4602 17.7974 28.7867 18.0768 28.2983 18.5349L28.8456 19.1184C29.1854 18.7996 29.6631 18.5974 30.1979 18.5974V17.7974ZM28.3003 18.533L20.3603 25.8786L20.9036 26.4659L28.8436 19.1203L28.3003 18.533ZM20.632 25.7722H18.9603V26.5722H20.632V25.7722ZM19.3603 26.1722V24.7877H18.5603V26.1722H19.3603ZM18.961 25.1877C20.3156 25.1852 21.4666 24.1617 21.4666 22.8353H20.6666C20.6666 23.663 19.9326 24.3859 18.9596 24.3877L18.961 25.1877ZM21.4666 22.8353C21.4666 22.7004 21.4545 22.5675 21.4309 22.4379L20.6439 22.5813C20.6588 22.6635 20.6666 22.7484 20.6666 22.8353H21.4666ZM20.6417 22.5685L20.6434 22.5799L21.4347 22.4622L21.433 22.4508L20.6417 22.5685ZM21.4281 22.4279C21.1559 21.2908 20.0872 20.4826 18.8448 20.4826V21.2826C19.7463 21.2826 20.4706 21.8646 20.6501 22.6142L21.4281 22.4279ZM18.8448 20.4826C18.8243 20.4826 18.8034 20.4828 18.7821 20.4833L18.801 21.2831C18.8151 21.2827 18.8296 21.2826 18.8448 21.2826V20.4826ZM18.8051 21.2829L18.8078 21.2828L18.7806 20.4833L18.778 20.4834L18.8051 21.2829ZM18.7942 20.4831H13.0082V21.2831H18.7942V20.4831ZM13.1746 20.5194L11.6256 19.8105L11.2927 20.5379L12.8417 21.2468L13.1746 20.5194ZM11.6285 19.8118C10.7681 19.4097 9.75861 19.1766 8.69386 19.1766V19.9766C9.64361 19.9766 10.5372 20.1849 11.2898 20.5366L11.6285 19.8118ZM8.69386 19.1766C7.11889 19.1766 5.66823 19.6866 4.52663 20.5424L5.00649 21.1825C6.01021 20.4301 7.29264 19.9766 8.69386 19.9766V19.1766ZM5.00123 21.1864L5.01293 21.1779L4.54359 20.5301L4.53189 20.5386L5.00123 21.1864ZM4.53996 20.5327C3.05356 21.6353 2.09671 23.3268 2.09671 25.2351H2.89671C2.89671 23.6062 3.71173 22.1432 5.01657 21.1753L4.53996 20.5327ZM2.09671 25.2351C2.09671 25.2671 2.09698 25.2988 2.0975 25.3304L2.89739 25.3173C2.89694 25.2898 2.89671 25.2624 2.89671 25.2351H2.09671ZM2.89741 25.3181L2.89734 25.3136L2.09742 25.3251L2.09749 25.3296L2.89741 25.3181ZM2.09738 25.3194V25.48H2.89738V25.3194H2.09738ZM2.49738 25.08H1.00074V25.88H2.49738V25.08ZM1.40074 25.48V25.3318H0.60074V25.48H1.40074ZM1.40068 25.3252C1.40025 25.2986 1.4 25.2665 1.4 25.2338H0.6C0.6 25.2701 0.600269 25.3067 0.600794 25.3384L1.40068 25.3252ZM1.4 25.2338C1.4 23.1691 2.43403 21.3184 4.06763 20.1074L3.59122 19.4647C1.77508 20.811 0.6 22.8907 0.6 25.2338H1.4ZM4.063 20.1108L4.07789 20.1001L3.61074 19.4506L3.59585 19.4613L4.063 20.1108ZM4.08421 20.0954C5.33037 19.1615 6.94024 18.5925 8.69868 18.5925V17.7925C6.76751 17.7925 4.98924 18.4174 3.60442 19.4553L4.08421 20.0954ZM8.69868 18.5925C9.88915 18.5925 11.0116 18.8532 12.0038 19.3149L12.3414 18.5896C11.2442 18.0791 10.0066 17.7925 8.69868 17.7925V18.5925ZM12.3279 18.5837L12.2835 18.5649L11.9728 19.3022L12.0173 19.3209L12.3279 18.5837ZM11.9617 19.2973L13.1964 19.8622L13.5293 19.1347L12.2946 18.5698L11.9617 19.2973ZM13.3629 19.8985H18.7776V19.0985H13.3629V19.8985ZM18.7854 19.8984C18.8033 19.898 18.8256 19.8979 18.8493 19.8979V19.0979C18.8225 19.0979 18.7946 19.098 18.7698 19.0985L18.7854 19.8984ZM18.8493 19.8979C20.475 19.8979 21.8007 20.9549 22.1176 22.3189L22.8969 22.1378C22.4885 20.3804 20.8142 19.0979 18.8493 19.0979V19.8979ZM22.1146 22.3049L22.1191 22.3276L22.9043 22.1745L22.8998 22.1518L22.1146 22.3049ZM22.1117 22.2511V22.2774H22.9117V22.2511H22.1117ZM22.1187 22.3517C22.128 22.4011 22.1356 22.4504 22.1416 22.4996L22.9358 22.404C22.9277 22.3368 22.9173 22.2698 22.9047 22.203L22.1187 22.3517ZM22.8103 22.7454L27.7881 18.1402L27.2448 17.553L22.267 22.1582L22.8103 22.7454ZM27.7913 18.1372C28.4038 17.558 29.2626 17.1942 30.2195 17.1942V16.3942C29.0586 16.3942 28.003 16.836 27.2416 17.556L27.7913 18.1372ZM30.2195 17.1942C32.1164 17.1942 33.6 18.6098 33.6 20.2918H34.4C34.4 18.1105 32.4985 16.3942 30.2195 16.3942V17.1942ZM33.6 20.2918C33.6 21.1522 33.2168 21.936 32.5868 22.5025L33.1218 23.0974C33.9051 22.3929 34.4 21.3989 34.4 20.2918H33.6ZM32.5882 22.5013L32.5873 22.5021L33.1195 23.0994L33.1204 23.0986L32.5882 22.5013ZM32.5817 22.5072L25.5341 29.0273L26.0774 29.6145L33.125 23.0944L32.5817 22.5072ZM25.5347 29.0267C24.1774 30.2772 22.3018 31.0563 20.2235 31.0615L20.2255 31.8615C22.5036 31.8558 24.572 31.0014 26.0768 29.6151L25.5347 29.0267ZM20.2245 31.0615H20.2233V31.8615H20.2245V31.0615ZM20.5353 31.7119L20.5354 31.7118L19.9115 31.2111L19.9114 31.2112L20.5353 31.7119ZM18.9004 25.7722H11.7465V26.5722H18.9004V25.7722ZM12.1465 26.1722V24.7876H11.3465V26.1722H12.1465ZM11.7465 25.1876H18.9005V24.3876H11.7465V25.1876ZM18.5005 24.7876L18.5004 26.1722L19.3004 26.1723L19.3005 24.7876L18.5005 24.7876ZM17.4637 1.4C22.4221 1.4 26.3876 5.1117 26.3876 9.62611H27.1876C27.1876 4.61241 22.8042 0.6 17.4637 0.6V1.4ZM26.3876 9.62611C26.3876 14.1405 22.4221 17.8523 17.4637 17.8523V18.6523C22.8042 18.6523 27.1876 14.6398 27.1876 9.62611H26.3876ZM17.4637 17.8523C12.5052 17.8523 8.53968 14.1405 8.53968 9.62611H7.73968C7.73968 14.6398 12.1231 18.6523 17.4637 18.6523V17.8523ZM8.53968 9.62661C8.54532 5.11395 12.5078 1.40533 17.4635 1.40003L17.4626 0.60003C12.1253 0.605737 7.74594 4.61461 7.73968 9.62561L8.53968 9.62661ZM17.4836 1.3995L17.4842 1.39947L17.4431 0.600526L17.4426 0.600556L17.4836 1.3995ZM17.4637 17.2676C21.9776 17.2676 25.691 13.8751 25.691 9.62611H24.891C24.891 13.3758 21.5955 16.4676 17.4637 16.4676V17.2676ZM25.691 9.62611C25.691 5.37709 21.9776 1.98468 17.4637 1.98468V2.78468C21.5955 2.78468 24.891 5.87639 24.891 9.62611H25.691ZM17.4637 1.98468C12.9497 1.98468 9.23629 5.37721 9.23629 9.6262H10.0363C10.0363 5.8765 13.3318 2.78468 17.4637 2.78468V1.98468ZM9.23629 9.62671C9.24176 13.8733 12.9516 17.2628 17.4628 17.2677L17.4637 16.4677C13.334 16.4632 10.0411 13.374 10.0363 9.62568L9.23629 9.62671ZM17.4632 17.2677H17.4637V16.4677H17.4632V17.2677ZM17.854 16.7803L17.854 16.7801L17.0733 16.9551L17.0734 16.9552L17.854 16.7803ZM17.4637 1.4C17.7668 1.4 18.1477 1.49064 18.5516 1.83554C18.9629 2.18667 19.4169 2.81804 19.8187 3.93257L20.5713 3.66126C20.1395 2.46346 19.6207 1.69638 19.0711 1.22713C18.5142 0.751656 17.9463 0.6 17.4637 0.6V1.4ZM19.816 3.92478C20.3589 5.53407 20.6732 7.38996 20.6732 9.31635H21.4732C21.4732 7.30565 21.1455 5.36321 20.574 3.66905L19.816 3.92478ZM20.6732 9.31635C20.6732 9.42286 20.6722 9.52924 20.6703 9.63535L21.4702 9.64958C21.4722 9.53871 21.4732 9.42759 21.4732 9.31635H20.6732ZM21.4702 9.64723L21.4704 9.63093L20.6705 9.6214L20.6703 9.6377L21.4702 9.64723ZM20.6705 9.6337C20.6722 9.72301 20.6732 9.82917 20.6732 9.93596H21.4732C21.4732 9.82488 21.4722 9.71364 21.4704 9.61863L20.6705 9.6337ZM20.6732 9.93596C20.6732 11.8606 20.3594 13.7171 19.7765 15.4645L20.5354 15.7176C21.145 13.8902 21.4732 11.9483 21.4732 9.93596H20.6732ZM20.5404 15.7015L20.5794 15.5658L19.8105 15.3449L19.7715 15.4807L20.5404 15.7015ZM19.8187 15.3197C19.4168 16.4342 18.9628 17.0656 18.5516 17.4167C18.1476 17.7616 17.7667 17.8523 17.4636 17.8523V18.6523C17.9462 18.6523 18.5141 18.5006 19.071 18.0251C19.6206 17.5559 20.1394 16.7888 20.5712 15.591L19.8187 15.3197ZM17.4636 17.8523C17.1605 17.8523 16.7796 17.7616 16.3756 17.4167C15.9644 17.0656 15.5103 16.4342 15.1086 15.3197L14.356 15.591C14.7878 16.7888 15.3066 17.5559 15.8561 18.0251C16.413 18.5006 16.981 18.6523 17.4636 18.6523V17.8523ZM15.1113 15.3275C14.5684 13.7182 14.254 11.8623 14.254 9.93593H13.454C13.454 11.9466 13.7817 13.8891 14.3532 15.5832L15.1113 15.3275ZM14.254 9.93593C14.254 9.82941 14.2549 9.72303 14.2568 9.61692L13.457 9.60269C13.455 9.71356 13.454 9.82469 13.454 9.93593H14.254ZM13.4569 9.60508L13.4567 9.62144L14.2567 9.63089L14.2569 9.61453L13.4569 9.60508ZM14.2566 9.61864C14.255 9.52927 14.254 9.42313 14.254 9.31635H13.454C13.454 9.42743 13.455 9.53863 13.4568 9.6337L14.2566 9.61864ZM14.254 9.31635C14.254 7.39166 14.5678 5.53519 15.1506 3.7878L14.3917 3.53467C13.7822 5.36215 13.454 7.30402 13.454 9.31635H14.254ZM14.3867 3.551L14.3478 3.68671L15.1168 3.90718L15.1557 3.77147L14.3867 3.551ZM15.1086 3.9326C15.5104 2.8181 15.9644 2.18672 16.3756 1.83558C16.7796 1.49068 17.1605 1.40003 17.4636 1.40003V0.60003C16.981 0.60003 16.413 0.751707 15.8562 1.22719C15.3066 1.69644 14.7878 2.46352 14.356 3.66129L15.1086 3.9326ZM17.6305 1.36355L17.6305 1.36352L17.2968 0.636476L17.2967 0.636506L17.6305 1.36355ZM17.4637 17.2676C17.6447 17.2676 17.8091 17.187 17.9375 17.0976C18.0738 17.0027 18.2109 16.8691 18.3451 16.7014C18.614 16.3652 18.8959 15.8607 19.151 15.1535L18.3984 14.8821C18.1641 15.5317 17.9199 15.9522 17.7204 16.2017C17.6203 16.3267 17.5376 16.4012 17.4803 16.4411C17.4151 16.4865 17.4121 16.4676 17.4637 16.4676V17.2676ZM19.154 15.1447C19.6771 13.582 19.9768 11.791 19.9768 9.9378H19.1768C19.1768 11.7074 18.8903 13.4124 18.3954 14.8908L19.154 15.1447ZM19.9768 9.9378C19.9768 9.82563 19.9758 9.71365 19.9736 9.60179L19.1737 9.61758C19.1758 9.72407 19.1768 9.83079 19.1768 9.9378H19.9768ZM19.1737 9.61597L19.1739 9.63233L19.9738 9.61976L19.9736 9.6034L19.1737 9.61597ZM19.9738 9.63437C19.9758 9.53836 19.9768 9.42617 19.9768 9.31429H19.1768C19.1768 9.42166 19.1758 9.52822 19.174 9.61773L19.9738 9.63437ZM19.9768 9.31429C19.9768 7.45949 19.6766 5.66904 19.1187 3.98295L18.3592 4.23427C18.8908 5.8408 19.1768 7.54646 19.1768 9.31429H19.9768ZM18.3542 4.21808L18.39 4.34385L19.1594 4.12491L19.1236 3.99914L18.3542 4.21808ZM19.151 4.09867C18.8959 3.39145 18.614 2.88695 18.3451 2.55077C18.211 2.38298 18.0739 2.24943 17.9375 2.15449C17.8091 2.06506 17.6447 1.98454 17.4637 1.98454V2.78454C17.4121 2.78454 17.4152 2.76562 17.4804 2.81102C17.5376 2.8509 17.6204 2.92539 17.7204 3.05045C17.92 3.29996 18.1641 3.72038 18.3984 4.37009L19.151 4.09867ZM17.4637 1.98454C17.2826 1.98454 17.1182 2.06506 16.9898 2.15449C16.8534 2.24944 16.7164 2.38299 16.5822 2.55077C16.3133 2.88695 16.0314 3.39144 15.7763 4.09867L16.5289 4.37009C16.7632 3.72039 17.0074 3.29996 17.2069 3.05045C17.3069 2.92539 17.3897 2.8509 17.4469 2.81102C17.5121 2.76562 17.5152 2.78454 17.4637 2.78454V1.98454ZM15.7733 4.1074C15.2502 5.6701 14.9505 7.46108 14.9505 9.31435H15.7505C15.7505 7.54474 16.037 5.83969 16.5319 4.36136L15.7733 4.1074ZM14.9505 9.31435C14.9505 9.4265 14.9515 9.53851 14.9537 9.65036L15.7536 9.63458C15.7515 9.52808 15.7505 9.42133 15.7505 9.31435H14.9505ZM15.7536 9.63616L15.7534 9.6198L14.9535 9.63241L14.9537 9.64878L15.7536 9.63616ZM14.9535 9.61779C14.9515 9.71376 14.9505 9.82596 14.9505 9.9378H15.7505C15.7505 9.83046 15.7515 9.7239 15.7533 9.63443L14.9535 9.61779ZM14.9505 9.9378C14.9505 11.7927 15.2507 13.5831 15.8086 15.2692L16.5681 15.0179C16.0365 13.4113 15.7505 11.7057 15.7505 9.9378H14.9505ZM16.5731 15.034L16.5373 14.9083L15.7679 15.1272L15.8037 15.253L16.5731 15.034ZM15.7765 15.1539C16.0316 15.8583 16.3134 16.3624 16.5819 16.6989C16.7158 16.8668 16.8527 17.0008 16.9888 17.0962C17.1167 17.1858 17.2815 17.2676 17.4637 17.2676V16.4676C17.5163 16.4676 17.5137 16.4871 17.4479 16.441C17.3904 16.4007 17.3074 16.3256 17.2072 16.1999C17.0073 15.9494 16.763 15.5286 16.5287 14.8815L15.7765 15.1539ZM26.0393 9.91839H8.88794V10.7184H26.0393V9.91839ZM9.28794 10.3184V8.93388H8.48794V10.3184H9.28794ZM8.88794 9.33388H26.0392V8.53388H8.88794V9.33388ZM25.6392 8.9339L25.6393 10.3184L26.4393 10.3184L26.4392 8.93386L25.6392 8.9339Z" fill="white" mask="url(#path-1-outside-1_133_112)"/>
</svg>
