<svg width="12" height="12" viewBox="0 0 12 12" fill="none" xmlns="http://www.w3.org/2000/svg">
<g clip-path="url(#clip0_91_9431)">
<path d="M3.33301 1.7334H9.33301V2.25007H3.33301V1.7334Z" fill="#73CA5C"/>
<path d="M9.66713 2.66675H3.28713C3.20207 2.66554 3.11813 2.64712 3.04037 2.61259C2.96262 2.57806 2.89267 2.52815 2.83473 2.46585C2.77679 2.40355 2.73207 2.33017 2.70327 2.25012C2.67447 2.17007 2.66217 2.08501 2.66713 2.00008C2.66672 1.83107 2.73051 1.6682 2.84562 1.54444C2.96072 1.42067 3.11853 1.34525 3.28713 1.33341H9.66713C9.75554 1.33341 9.84032 1.2983 9.90283 1.23578C9.96535 1.17327 10.0005 1.08849 10.0005 1.00008C10.0005 0.911676 9.96535 0.826891 9.90283 0.764379C9.84032 0.701867 9.75554 0.666748 9.66713 0.666748H3.28713C2.94166 0.678847 2.61439 0.824646 2.37435 1.0734C2.13431 1.32214 2.00025 1.6544 2.00047 2.00008C1.99724 2.05448 1.99724 2.10902 2.00047 2.16341C1.99725 2.18998 1.99725 2.21684 2.00047 2.24341V10.0001C2.00025 10.3458 2.13431 10.678 2.37435 10.9268C2.61439 11.1755 2.94166 11.3213 3.28713 11.3334H9.66713C9.75554 11.3334 9.84032 11.2983 9.90283 11.2358C9.96535 11.1733 10.0005 11.0885 10.0005 11.0001V3.02341C10.0007 2.93273 9.9663 2.84537 9.90438 2.77912C9.84246 2.71286 9.75762 2.67268 9.66713 2.66675ZM9.3338 10.6667H3.28713C3.11853 10.6549 2.96072 10.5795 2.84562 10.4557C2.73051 10.332 2.66672 10.1691 2.66713 10.0001V3.18341C2.85666 3.28797 3.07077 3.33977 3.28713 3.33341H9.3338V10.6667Z" fill="#73CA5C"/>
</g>
<defs>
<clipPath id="clip0_91_9431">
<rect width="12" height="12" fill="white"/>
</clipPath>
</defs>
</svg>
