<svg width="39" height="36" viewBox="0 0 39 36" fill="none" xmlns="http://www.w3.org/2000/svg">
<mask id="path-1-outside-1_133_112" maskUnits="userSpaceOnUse" x="0" y="0" width="39" height="36" fill="black">
<rect fill="white" width="39" height="36"/>
<path d="M22.4565 34.9999H9.80432V33.4544H22.4498C24.423 33.4509 26.209 32.7118 27.5049 31.5178L35.3726 24.239C35.8456 23.8105 36.1388 23.2136 36.1388 22.5534C36.1388 21.2509 34.9976 20.1951 33.5896 20.1951C32.8794 20.1951 32.237 20.4638 31.7747 20.8974L22.9125 29.0963H21.0466V27.5509C22.3456 27.5486 23.3976 26.5739 23.3976 25.3718C23.3976 25.2479 23.3865 25.1264 23.365 25.0082L23.3669 25.021C23.1148 23.968 22.1141 23.1922 20.9176 23.1922C20.8978 23.1922 20.878 23.1924 20.8582 23.1928L20.8612 23.1927H14.4031L12.6741 22.4015C11.7739 21.9808 10.7118 21.7345 9.58759 21.7345C7.92664 21.7345 6.40135 22.2722 5.20409 23.1697L5.21715 23.1603C3.65942 24.3157 2.67057 26.0762 2.67057 28.0503C2.67057 28.0834 2.67085 28.1164 2.67139 28.1493L2.67132 28.1443V28.3236H1.00083V28.1582C1.00029 28.1257 1 28.0873 1 28.0489C1 25.5889 2.23286 23.3954 4.1581 21.9683L4.17472 21.9563C5.64301 20.8559 7.53387 20.1896 9.59297 20.1896C10.9873 20.1896 12.3044 20.4951 13.4704 21.0377L13.4208 21.0167L14.7989 21.6473H20.8427C20.8665 21.6468 20.8945 21.6466 20.9227 21.6466C22.9265 21.6466 24.6008 22.9523 25.0056 24.6942L25.0105 24.7196V24.749C25.0228 24.8138 25.0328 24.8787 25.0407 24.9437L30.5967 19.8035C31.3634 19.0785 32.4318 18.6289 33.6137 18.6289C35.9441 18.6289 37.8333 20.3767 37.8333 22.5327C37.8333 23.6308 37.3433 24.623 36.5545 25.3323L36.5535 25.3332L28.6872 32.6107C27.09 34.0823 24.8889 34.9939 22.4576 35H22.4564L22.4565 34.9999ZM20.9798 29.0963H12.9949V27.5508H20.9798L20.9798 29.0963ZM19.3761 1C25.1237 1 29.7832 5.31067 29.7832 10.6281C29.7832 15.9456 25.1237 20.2563 19.3761 20.2563C13.6285 20.2563 8.96904 15.9456 8.96904 10.6281C8.97568 5.31316 13.6311 1.00618 19.3754 1.00003L19.3761 1ZM19.3761 18.7108C24.2012 18.7108 28.1127 15.0921 28.1127 10.6281C28.1127 6.16419 24.2011 2.54553 19.3761 2.54553C14.551 2.54553 10.6395 6.16432 10.6395 10.6282C10.6452 15.09 14.5533 18.7057 19.3756 18.711H19.3761L19.3761 18.7108ZM19.3761 1C20.2531 1 21.4943 1.54088 22.4247 4.12181C23.0467 5.9654 23.4049 8.08518 23.4049 10.2824C23.4049 10.4039 23.4038 10.5253 23.4017 10.6464L23.4019 10.6282C23.4038 10.7311 23.4049 10.8524 23.4049 10.974C23.4049 13.1711 23.0466 15.2909 22.3812 17.286L22.4247 17.1345C21.4942 19.7154 20.253 20.2563 19.376 20.2563C18.499 20.2563 17.2578 19.7154 16.3274 17.1345C15.7055 15.2909 15.3471 13.1711 15.3471 10.9739C15.3471 10.8524 15.3482 10.731 15.3504 10.6099L15.3502 10.6282C15.3482 10.5253 15.3471 10.404 15.3471 10.2824C15.3471 8.08521 15.7054 5.96544 16.3709 3.97037L16.3275 4.12184C17.2579 1.54098 18.499 1.00003 19.376 1.00003L19.3761 1ZM19.3761 18.7108C19.6651 18.7108 20.2932 18.1606 20.8394 16.6461C21.4076 14.9489 21.7348 12.9979 21.7348 10.976C21.7348 10.8537 21.7336 10.7317 21.7312 10.6098L21.7315 10.6281C21.7336 10.5245 21.7348 10.4024 21.7348 10.2801C21.7348 8.25837 21.4076 6.30726 20.7995 4.46971L20.8394 4.61009C20.2932 3.09554 19.6651 2.54537 19.3761 2.54537C19.087 2.54537 18.459 3.09554 17.9128 4.61009C17.3446 6.30723 17.0174 8.2583 17.0174 10.2802C17.0174 10.4024 17.0186 10.5245 17.021 10.6464L17.0207 10.6281C17.0186 10.7316 17.0174 10.8537 17.0174 10.976C17.0174 12.9978 17.3446 14.9489 17.9527 16.7864L17.9128 16.6461C18.459 18.1544 19.087 18.7108 19.3761 18.7108ZM28.9479 11.4008H9.80421V9.8555H28.9478L28.9479 11.4008Z"/>
</mask>
<path d="M22.4565 34.9999H9.80432V33.4544H22.4498C24.423 33.4509 26.209 32.7118 27.5049 31.5178L35.3726 24.239C35.8456 23.8105 36.1388 23.2136 36.1388 22.5534C36.1388 21.2509 34.9976 20.1951 33.5896 20.1951C32.8794 20.1951 32.237 20.4638 31.7747 20.8974L22.9125 29.0963H21.0466V27.5509C22.3456 27.5486 23.3976 26.5739 23.3976 25.3718C23.3976 25.2479 23.3865 25.1264 23.365 25.0082L23.3669 25.021C23.1148 23.968 22.1141 23.1922 20.9176 23.1922C20.8978 23.1922 20.878 23.1924 20.8582 23.1928L20.8612 23.1927H14.4031L12.6741 22.4015C11.7739 21.9808 10.7118 21.7345 9.58759 21.7345C7.92664 21.7345 6.40135 22.2722 5.20409 23.1697L5.21715 23.1603C3.65942 24.3157 2.67057 26.0762 2.67057 28.0503C2.67057 28.0834 2.67085 28.1164 2.67139 28.1493L2.67132 28.1443V28.3236H1.00083V28.1582C1.00029 28.1257 1 28.0873 1 28.0489C1 25.5889 2.23286 23.3954 4.1581 21.9683L4.17472 21.9563C5.64301 20.8559 7.53387 20.1896 9.59297 20.1896C10.9873 20.1896 12.3044 20.4951 13.4704 21.0377L13.4208 21.0167L14.7989 21.6473H20.8427C20.8665 21.6468 20.8945 21.6466 20.9227 21.6466C22.9265 21.6466 24.6008 22.9523 25.0056 24.6942L25.0105 24.7196V24.749C25.0228 24.8138 25.0328 24.8787 25.0407 24.9437L30.5967 19.8035C31.3634 19.0785 32.4318 18.6289 33.6137 18.6289C35.9441 18.6289 37.8333 20.3767 37.8333 22.5327C37.8333 23.6308 37.3433 24.623 36.5545 25.3323L36.5535 25.3332L28.6872 32.6107C27.09 34.0823 24.8889 34.9939 22.4576 35H22.4564L22.4565 34.9999ZM20.9798 29.0963H12.9949V27.5508H20.9798L20.9798 29.0963ZM19.3761 1C25.1237 1 29.7832 5.31067 29.7832 10.6281C29.7832 15.9456 25.1237 20.2563 19.3761 20.2563C13.6285 20.2563 8.96904 15.9456 8.96904 10.6281C8.97568 5.31316 13.6311 1.00618 19.3754 1.00003L19.3761 1ZM19.3761 18.7108C24.2012 18.7108 28.1127 15.0921 28.1127 10.6281C28.1127 6.16419 24.2011 2.54553 19.3761 2.54553C14.551 2.54553 10.6395 6.16432 10.6395 10.6282C10.6452 15.09 14.5533 18.7057 19.3756 18.711H19.3761L19.3761 18.7108ZM19.3761 1C20.2531 1 21.4943 1.54088 22.4247 4.12181C23.0467 5.9654 23.4049 8.08518 23.4049 10.2824C23.4049 10.4039 23.4038 10.5253 23.4017 10.6464L23.4019 10.6282C23.4038 10.7311 23.4049 10.8524 23.4049 10.974C23.4049 13.1711 23.0466 15.2909 22.3812 17.286L22.4247 17.1345C21.4942 19.7154 20.253 20.2563 19.376 20.2563C18.499 20.2563 17.2578 19.7154 16.3274 17.1345C15.7055 15.2909 15.3471 13.1711 15.3471 10.9739C15.3471 10.8524 15.3482 10.731 15.3504 10.6099L15.3502 10.6282C15.3482 10.5253 15.3471 10.404 15.3471 10.2824C15.3471 8.08521 15.7054 5.96544 16.3709 3.97037L16.3275 4.12184C17.2579 1.54098 18.499 1.00003 19.376 1.00003L19.3761 1ZM19.3761 18.7108C19.6651 18.7108 20.2932 18.1606 20.8394 16.6461C21.4076 14.9489 21.7348 12.9979 21.7348 10.976C21.7348 10.8537 21.7336 10.7317 21.7312 10.6098L21.7315 10.6281C21.7336 10.5245 21.7348 10.4024 21.7348 10.2801C21.7348 8.25837 21.4076 6.30726 20.7995 4.46971L20.8394 4.61009C20.2932 3.09554 19.6651 2.54537 19.3761 2.54537C19.087 2.54537 18.459 3.09554 17.9128 4.61009C17.3446 6.30723 17.0174 8.2583 17.0174 10.2802C17.0174 10.4024 17.0186 10.5245 17.021 10.6464L17.0207 10.6281C17.0186 10.7316 17.0174 10.8537 17.0174 10.976C17.0174 12.9978 17.3446 14.9489 17.9527 16.7864L17.9128 16.6461C18.459 18.1544 19.087 18.7108 19.3761 18.7108ZM28.9479 11.4008H9.80421V9.8555H28.9478L28.9479 11.4008Z" fill="white"/>
<path d="M22.4565 34.9999L23.2364 35.6257L24.5411 33.9999H22.4565V34.9999ZM9.80432 34.9999H8.80432V35.9999H9.80432V34.9999ZM9.80432 33.4544V32.4544H8.80432V33.4544H9.80432ZM22.4498 33.4544L22.4498 34.4544L22.4516 34.4544L22.4498 33.4544ZM27.5049 31.5178L28.1825 32.2532L28.184 32.2518L27.5049 31.5178ZM35.3726 24.239L34.7012 23.4978L34.6935 23.5049L35.3726 24.239ZM31.7747 20.8974L32.4538 21.6315L32.4589 21.6268L31.7747 20.8974ZM22.9125 29.0963V30.0963H23.3041L23.5916 29.8303L22.9125 29.0963ZM21.0466 29.0963H20.0466V30.0963H21.0466V29.0963ZM21.0466 27.5509L21.0448 26.5509L20.0466 26.5527V27.5509H21.0466ZM23.365 25.0082L24.3488 24.829L22.3758 25.1553L23.365 25.0082ZM23.3669 25.021L22.3943 25.2538L24.356 24.8739L23.3669 25.021ZM20.8582 23.1928L20.8243 22.1934L20.8818 24.1926L20.8582 23.1928ZM20.8612 23.1927L20.8952 24.1921L20.8612 22.1927V23.1927ZM14.4031 23.1927L13.987 24.102L14.1851 24.1927H14.4031V23.1927ZM12.6741 22.4015L12.2507 23.3075L12.258 23.3108L12.6741 22.4015ZM5.20409 23.1697L4.60426 22.3696L5.79077 23.9796L5.20409 23.1697ZM5.21715 23.1603L5.81291 23.9635L4.63047 22.3505L5.21715 23.1603ZM2.67139 28.1493L1.67153 28.1657L3.67129 28.1349L2.67139 28.1493ZM2.67132 28.1443L3.67122 28.1299L1.67132 28.1443H2.67132ZM2.67132 28.3236V29.3236H3.67132V28.3236H2.67132ZM1.00083 28.3236H0.00082545V29.3236H1.00083V28.3236ZM1.00083 28.1582H2.00083V28.15L2.00069 28.1417L1.00083 28.1582ZM4.1581 21.9683L3.57416 21.1565L3.56834 21.1607L3.56259 21.1649L4.1581 21.9683ZM4.17472 21.9563L4.75866 22.7681L4.76661 22.7624L4.77445 22.7565L4.17472 21.9563ZM13.4704 21.0377L13.0821 21.9592L13.8923 20.131L13.4704 21.0377ZM13.4208 21.0167L13.8092 20.0952L13.0048 21.9261L13.4208 21.0167ZM14.7989 21.6473L14.3829 22.5566L14.581 22.6473H14.7989V21.6473ZM20.8427 21.6473V22.6473H20.8524L20.8622 22.6471L20.8427 21.6473ZM25.0056 24.6942L25.9871 24.5029L25.9836 24.4853L25.9796 24.4679L25.0056 24.6942ZM25.0105 24.7196H26.0105V24.6231L25.992 24.5283L25.0105 24.7196ZM25.0105 24.749H24.0105V24.8428L24.0279 24.9349L25.0105 24.749ZM25.0407 24.9437L24.0478 25.0633L24.2821 27.0078L25.7198 25.6777L25.0407 24.9437ZM30.5967 19.8035L31.2758 20.5376L31.2837 20.5301L30.5967 19.8035ZM36.5545 25.3323L37.2197 26.079L37.2232 26.0759L36.5545 25.3323ZM36.5535 25.3332L35.8883 24.5865L35.8813 24.5928L35.8744 24.5991L36.5535 25.3332ZM28.6872 32.6107L29.3648 33.3462L29.3663 33.3448L28.6872 32.6107ZM22.4576 35L22.4576 36L22.4601 36L22.4576 35ZM22.4564 35L21.6764 34.3741L20.3717 36H22.4564V35ZM20.9798 29.0963V30.0963H21.9797L21.9798 29.0963L20.9798 29.0963ZM12.9949 29.0963H11.9949V30.0963H12.9949V29.0963ZM12.9949 27.5508V26.5508H11.9949V27.5508H12.9949ZM20.9798 27.5508L21.9798 27.5509L21.9799 26.5508H20.9798V27.5508ZM19.3761 1V0H19.3504L19.3248 0.00131601L19.3761 1ZM8.96904 10.6281L7.96904 10.6269V10.6281H8.96904ZM19.3754 1.00003L19.3765 2.00003L19.4016 2.00001L19.4267 1.99872L19.3754 1.00003ZM10.6395 10.6282L9.6395 10.6282L9.6395 10.6295L10.6395 10.6282ZM19.3756 18.711L19.3745 19.711H19.3756V18.711ZM19.3761 18.711V19.711H20.625L20.3519 18.4923L19.3761 18.711ZM22.4247 4.12181L23.3722 3.80215L23.3689 3.79238L23.3654 3.78267L22.4247 4.12181ZM23.4017 10.6464L22.4017 10.6345L24.4015 10.6642L23.4017 10.6464ZM23.4019 10.6282L24.4017 10.6094L22.402 10.6163L23.4019 10.6282ZM22.3812 17.286L21.42 17.01L23.3298 17.6024L22.3812 17.286ZM22.4247 17.1345L23.3858 17.4105L21.4839 16.7953L22.4247 17.1345ZM16.3274 17.1345L15.3799 17.4542L15.3832 17.4639L15.3867 17.4736L16.3274 17.1345ZM15.3504 10.6099L16.3503 10.6217L14.3505 10.5922L15.3504 10.6099ZM15.3502 10.6282L14.3503 10.647L16.3501 10.64L15.3502 10.6282ZM16.3709 3.97037L17.3322 4.24596L15.4223 3.65396L16.3709 3.97037ZM16.3275 4.12184L15.3662 3.84625L17.2682 4.46099L16.3275 4.12184ZM19.376 1.00003V2.00003H19.5946L19.7932 1.90884L19.376 1.00003ZM20.8394 16.6461L21.7801 16.9854L21.784 16.9745L21.7877 16.9635L20.8394 16.6461ZM21.7312 10.6098L22.731 10.5901L20.7313 10.6255L21.7312 10.6098ZM21.7315 10.6281L20.7316 10.6438L22.7312 10.6489L21.7315 10.6281ZM20.7995 4.46971L21.7489 4.15555L19.8377 4.74338L20.7995 4.46971ZM20.8394 4.61009L19.8987 4.94936L21.8013 4.33642L20.8394 4.61009ZM17.9128 4.61009L16.9721 4.27081L16.9681 4.28168L16.9645 4.29265L17.9128 4.61009ZM17.021 10.6464L16.0212 10.6661L18.0209 10.6306L17.021 10.6464ZM17.0207 10.6281L18.0206 10.6124L16.0209 10.6073L17.0207 10.6281ZM17.9527 16.7864L17.0033 17.1006L18.9145 16.5128L17.9527 16.7864ZM17.9128 16.6461L18.853 16.3056L16.9509 16.9197L17.9128 16.6461ZM28.9479 11.4008V12.4008H29.948L29.9479 11.4008L28.9479 11.4008ZM9.80421 11.4008H8.80421V12.4008H9.80421V11.4008ZM9.80421 9.8555V8.8555H8.80421V9.8555H9.80421ZM28.9478 9.8555L29.9478 9.85545L29.9478 8.8555H28.9478V9.8555ZM22.4565 33.9999H9.80432V35.9999H22.4565V33.9999ZM10.8043 34.9999V33.4544H8.80432V34.9999H10.8043ZM9.80432 34.4544H22.4498V32.4544H9.80432V34.4544ZM22.4516 34.4544C24.6749 34.4504 26.7021 33.6172 28.1825 32.2532L26.8273 30.7823C25.7159 31.8063 24.1712 32.4513 22.448 32.4544L22.4516 34.4544ZM28.184 32.2518L36.0517 24.973L34.6935 23.5049L26.8258 30.7837L28.184 32.2518ZM36.044 24.9801C36.7073 24.3792 37.1388 23.5206 37.1388 22.5534H35.1388C35.1388 22.9067 34.984 23.2417 34.7012 23.4978L36.044 24.9801ZM37.1388 22.5534C37.1388 20.6268 35.4751 19.1951 33.5896 19.1951V21.1951C34.52 21.1951 35.1388 21.8751 35.1388 22.5534H37.1388ZM33.5896 19.1951C32.6258 19.1951 31.7386 19.5603 31.0906 20.1681L32.4589 21.6268C32.7354 21.3674 33.133 21.1951 33.5896 21.1951V19.1951ZM31.0956 20.1634L22.2334 28.3622L23.5916 29.8303L32.4538 21.6315L31.0956 20.1634ZM22.9125 28.0963H21.0466V30.0963H22.9125V28.0963ZM22.0466 29.0963V27.5509H20.0466V29.0963H22.0466ZM21.0484 28.5509C22.8243 28.5477 24.3976 27.1973 24.3976 25.3718H22.3976C22.3976 25.9504 21.8669 26.5494 21.0448 26.5509L21.0484 28.5509ZM24.3976 25.3718C24.3976 25.1879 24.3811 25.0064 24.3488 24.829L22.3811 25.1874C22.3919 25.2464 22.3976 25.3079 22.3976 25.3718H24.3976ZM22.3758 25.1553L22.3777 25.1681L24.356 24.8739L24.3541 24.8611L22.3758 25.1553ZM24.3394 24.7882C23.9713 23.2508 22.5402 22.1922 20.9176 22.1922V24.1922C21.688 24.1922 22.2582 24.6853 22.3943 25.2538L24.3394 24.7882ZM20.9176 22.1922C20.8911 22.1922 20.8634 22.1924 20.8347 22.1931L20.8818 24.1926C20.8926 24.1923 20.9045 24.1922 20.9176 24.1922V22.1922ZM20.8922 24.1922L20.8952 24.1921L20.8272 22.1933L20.8243 22.1934L20.8922 24.1922ZM20.8612 22.1927H14.4031V24.1927H20.8612V22.1927ZM14.8192 22.2834L13.0902 21.4922L12.258 23.3108L13.987 24.102L14.8192 22.2834ZM13.0975 21.4955C12.0624 21.0118 10.8556 20.7345 9.58759 20.7345V22.7345C10.5681 22.7345 11.4854 22.9498 12.2508 23.3075L13.0975 21.4955ZM9.58759 20.7345C7.70945 20.7345 5.97387 21.3429 4.60426 22.3696L5.80392 23.9699C6.82883 23.2015 8.14383 22.7345 9.58759 22.7345V20.7345ZM5.79077 23.9796L5.80383 23.9701L4.63047 22.3505L4.61741 22.3599L5.79077 23.9796ZM4.6214 22.3571C2.83671 23.6809 1.67057 25.7271 1.67057 28.0503H3.67057C3.67057 26.4254 4.48213 24.9506 5.81291 23.9635L4.6214 22.3571ZM1.67057 28.0503C1.67057 28.0892 1.6709 28.1276 1.67153 28.1657L3.67126 28.133C3.6708 28.1052 3.67057 28.0776 3.67057 28.0503H1.67057ZM3.67129 28.1349L3.67122 28.1299L1.67142 28.1587L1.6715 28.1637L3.67129 28.1349ZM1.67132 28.1443V28.3236H3.67132V28.1443H1.67132ZM2.67132 27.3236H1.00083V29.3236H2.67132V27.3236ZM2.00083 28.3236V28.1582H0.00082545V28.3236H2.00083ZM2.00069 28.1417C2.00026 28.1156 2 28.0829 2 28.0489H0C0 28.0918 0.00031716 28.1358 0.000962281 28.1748L2.00069 28.1417ZM2 28.0489C2 25.937 3.05655 24.0296 4.75361 22.7716L3.56259 21.1649C1.40917 22.7612 0 25.2409 0 28.0489H2ZM4.74204 22.7801L4.75866 22.7681L3.59078 21.1445L3.57416 21.1565L4.74204 22.7801ZM4.77445 22.7565C6.06942 21.786 7.74978 21.1896 9.59297 21.1896V19.1896C7.31796 19.1896 5.21661 19.9258 3.57499 21.1561L4.77445 22.7565ZM9.59297 21.1896C10.8405 21.1896 12.0137 21.4628 13.0485 21.9443L13.8923 20.131C12.5951 19.5273 11.134 19.1896 9.59297 19.1896V21.1896ZM13.8588 20.1161L13.8092 20.0952L13.0324 21.9382L13.0821 21.9592L13.8588 20.1161ZM13.0048 21.9261L14.3829 22.5566L15.215 20.7379L13.8368 20.1074L13.0048 21.9261ZM14.7989 22.6473H20.8427V20.6473H14.7989V22.6473ZM20.8622 22.6471C20.8773 22.6468 20.8985 22.6466 20.9227 22.6466V20.6466C20.8906 20.6466 20.8556 20.6468 20.8231 20.6475L20.8622 22.6471ZM20.9227 22.6466C22.5026 22.6466 23.741 23.6705 24.0315 24.9206L25.9796 24.4679C25.4605 22.234 23.3505 20.6466 20.9227 20.6466V22.6466ZM24.024 24.8856L24.029 24.911L25.992 24.5283L25.9871 24.5029L24.024 24.8856ZM24.0105 24.7196V24.749H26.0105V24.7196H24.0105ZM24.0279 24.9349C24.0361 24.978 24.0427 25.0208 24.0478 25.0633L26.0335 24.8241C26.023 24.7367 26.0095 24.6497 25.9931 24.563L24.0279 24.9349ZM25.7198 25.6777L31.2758 20.5376L29.9175 19.0695L24.3616 24.2096L25.7198 25.6777ZM31.2837 20.5301C31.8644 19.981 32.6869 19.6289 33.6137 19.6289V17.6289C32.1767 17.6289 30.8623 18.176 29.9096 19.077L31.2837 20.5301ZM33.6137 19.6289C35.4665 19.6289 36.8333 21.0008 36.8333 22.5327H38.8333C38.8333 19.7526 36.4217 17.6289 33.6137 17.6289V19.6289ZM36.8333 22.5327C36.8333 23.3224 36.4829 24.0519 35.8859 24.5887L37.2232 26.0759C38.2037 25.1941 38.8333 23.9392 38.8333 22.5327H36.8333ZM35.8893 24.5856L35.8883 24.5865L37.2187 26.0799L37.2197 26.079L35.8893 24.5856ZM35.8744 24.5991L28.0081 31.8767L29.3663 33.3448L37.2326 26.0672L35.8744 24.5991ZM28.0097 31.8753C26.5967 33.177 24.6366 33.9945 22.4551 34L22.4601 36C25.1412 35.9933 27.5832 34.9875 29.3648 33.3462L28.0097 31.8753ZM22.4576 34H22.4564V36H22.4576V34ZM23.2363 35.6259L23.2364 35.6257L21.6765 34.374L21.6764 34.3741L23.2363 35.6259ZM20.9798 28.0963H12.9949V30.0963H20.9798V28.0963ZM13.9949 29.0963V27.5508H11.9949V29.0963H13.9949ZM12.9949 28.5508H20.9798V26.5508H12.9949V28.5508ZM19.9798 27.5508L19.9798 29.0962L21.9798 29.0963L21.9798 27.5509L19.9798 27.5508ZM19.3761 2C24.6461 2 28.7832 5.93479 28.7832 10.6281H30.7832C30.7832 4.68656 25.6013 0 19.3761 0V2ZM28.7832 10.6281C28.7832 15.3215 24.6461 19.2563 19.3761 19.2563V21.2563C25.6014 21.2563 30.7832 16.5697 30.7832 10.6281H28.7832ZM19.3761 19.2563C14.1061 19.2563 9.96904 15.3215 9.96904 10.6281H7.96904C7.96904 16.5697 13.1508 21.2563 19.3761 21.2563V19.2563ZM9.96904 10.6294C9.9749 5.93734 14.1092 2.00567 19.3765 2.00003L19.3744 3.37564e-05C13.153 0.00668637 7.97646 4.68899 7.96904 10.6269L9.96904 10.6294ZM19.4267 1.99872L19.4274 1.99868L19.3248 0.00131601L19.3242 0.00134919L19.4267 1.99872ZM19.3761 19.7108C24.6788 19.7108 29.1127 15.7162 29.1127 10.6281H27.1127C27.1127 14.4679 23.7236 17.7108 19.3761 17.7108V19.7108ZM29.1127 10.6281C29.1127 5.54006 24.6787 1.54553 19.3761 1.54553V3.54553C23.7235 3.54553 27.1127 6.78832 27.1127 10.6281H29.1127ZM19.3761 1.54553C14.0734 1.54553 9.6395 5.54021 9.6395 10.6282H11.6395C11.6395 6.78843 15.0286 3.54553 19.3761 3.54553V1.54553ZM9.6395 10.6295C9.64604 15.7142 14.0752 19.7052 19.3745 19.711L19.3767 17.711C15.0314 17.7062 11.6444 14.4659 11.6395 10.6269L9.6395 10.6295ZM19.3756 19.711H19.3761V17.711H19.3756V19.711ZM20.3519 18.4923L20.3519 18.4921L18.4003 18.9295L18.4003 18.9296L20.3519 18.4923ZM19.3761 2C19.5902 2 19.886 2.05895 20.231 2.35356C20.5943 2.66375 21.0563 3.27456 21.484 4.46094L23.3654 3.78267C22.8627 2.38813 22.2388 1.43803 21.5297 0.832548C20.8023 0.211492 20.039 0 19.3761 0V2ZM21.4772 4.44147C22.0633 6.17898 22.4049 8.19057 22.4049 10.2824H24.4049C24.4049 7.97979 24.03 5.75182 23.3722 3.80215L21.4772 4.44147ZM22.4049 10.2824C22.4049 10.398 22.4039 10.5135 22.4018 10.6286L24.4015 10.6642C24.4038 10.5371 24.4049 10.4098 24.4049 10.2824H22.4049ZM24.4016 10.6583L24.4018 10.6401L22.402 10.6163L22.4017 10.6345L24.4016 10.6583ZM22.4021 10.647C22.4039 10.7428 22.4049 10.8577 22.4049 10.974H24.4049C24.4049 10.847 24.4038 10.7194 24.4017 10.6094L22.4021 10.647ZM22.4049 10.974C22.4049 13.0616 22.0646 15.0746 21.4325 16.9696L23.3298 17.6024C24.0286 15.5072 24.4049 13.2807 24.4049 10.974H22.4049ZM23.3423 17.562L23.3858 17.4105L21.4635 16.8585L21.42 17.01L23.3423 17.562ZM21.4839 16.7953C21.0562 17.9817 20.5943 18.5925 20.2309 18.9027C19.8859 19.1974 19.5901 19.2563 19.376 19.2563V21.2563C20.0389 21.2563 20.8022 21.0448 21.5296 20.4237C22.2387 19.8183 22.8626 18.8682 23.3654 17.4737L21.4839 16.7953ZM19.376 19.2563C19.1619 19.2563 18.8661 19.1974 18.5211 18.9028C18.1578 18.5926 17.6958 17.9818 17.2682 16.7954L15.3867 17.4736C15.8894 18.8682 16.5133 19.8183 17.2224 20.4238C17.9498 21.0448 18.7131 21.2563 19.376 21.2563V19.2563ZM17.275 16.8149C16.6888 15.0773 16.3471 13.0657 16.3471 10.9739H14.3471C14.3471 13.2766 14.7221 15.5045 15.3799 17.4542L17.275 16.8149ZM16.3471 10.9739C16.3471 10.8583 16.3482 10.7429 16.3502 10.6277L14.3505 10.5922C14.3483 10.7192 14.3471 10.8465 14.3471 10.9739H16.3471ZM14.3504 10.5981L14.3502 10.6164L16.3501 10.64L16.3503 10.6217L14.3504 10.5981ZM16.35 10.6094C16.3482 10.5136 16.3471 10.3986 16.3471 10.2824H14.3471C14.3471 10.4093 14.3483 10.537 14.3503 10.647L16.35 10.6094ZM16.3471 10.2824C16.3471 8.19476 16.6874 6.18174 17.3195 4.28678L15.4223 3.65396C14.7234 5.74913 14.3471 7.97566 14.3471 10.2824H16.3471ZM15.4096 3.69478L15.3662 3.84625L17.2887 4.39743L17.3322 4.24596L15.4096 3.69478ZM17.2682 4.46099C17.6959 3.27463 18.1578 2.66381 18.5211 2.35361C18.8662 2.05898 19.1619 2.00003 19.376 2.00003V3.31847e-05C18.7131 3.31847e-05 17.9498 0.211558 17.2224 0.832618C16.5133 1.4381 15.8895 2.38819 15.3867 3.7827L17.2682 4.46099ZM19.7932 1.90884L19.7933 1.90881L18.9589 0.0911898L18.9588 0.091223L19.7932 1.90884ZM19.3761 19.7108C19.7391 19.7108 20.0342 19.5521 20.2213 19.4218C20.4282 19.2778 20.6188 19.0878 20.7922 18.871C21.1403 18.4358 21.481 17.8146 21.7801 16.9854L19.8988 16.3068C19.6516 16.9922 19.4051 17.4032 19.2303 17.6218C19.1423 17.7318 19.0876 17.7741 19.0784 17.7805C19.0493 17.8007 19.1575 17.7108 19.3761 17.7108V19.7108ZM21.7877 16.9635C22.3911 15.1609 22.7348 13.1024 22.7348 10.976H20.7348C20.7348 12.8933 20.424 14.7369 19.8912 16.3287L21.7877 16.9635ZM22.7348 10.976C22.7348 10.8473 22.7335 10.7186 22.731 10.5901L20.7314 10.6295C20.7336 10.7447 20.7348 10.8602 20.7348 10.976H22.7348ZM20.7313 10.6255L20.7316 10.6438L22.7313 10.6124L22.7311 10.5941L20.7313 10.6255ZM22.7312 10.6489C22.7336 10.5372 22.7348 10.4081 22.7348 10.2801H20.7348C20.7348 10.3968 20.7337 10.5119 20.7317 10.6073L22.7312 10.6489ZM22.7348 10.2801C22.7348 8.14965 22.3898 6.09257 21.7489 4.15555L19.8501 4.78387C20.4253 6.52196 20.7348 8.36708 20.7348 10.2801H22.7348ZM19.8377 4.74338L19.8776 4.88376L21.8013 4.33642L21.7613 4.19604L19.8377 4.74338ZM21.7801 4.27083C21.4811 3.44164 21.1403 2.82036 20.7923 2.38517C20.6188 2.16833 20.4282 1.9784 20.2213 1.83434C20.0342 1.70405 19.7391 1.54537 19.3761 1.54537V3.54537C19.1576 3.54537 19.0494 3.45545 19.0785 3.47565C19.0877 3.48208 19.1424 3.52434 19.2304 3.63437C19.4052 3.85291 19.6516 4.26399 19.8987 4.94936L21.7801 4.27083ZM19.3761 1.54537C19.0131 1.54537 18.718 1.70406 18.5309 1.83434C18.324 1.97841 18.1333 2.16834 17.9599 2.38518C17.6119 2.82036 17.2711 3.44164 16.9721 4.27081L18.8534 4.94938C19.1006 4.26399 19.347 3.8529 19.5218 3.63437C19.6098 3.52434 19.6645 3.48207 19.6738 3.47565C19.7028 3.45545 19.5946 3.54537 19.3761 3.54537V1.54537ZM16.9645 4.29265C16.361 6.09524 16.0174 8.15373 16.0174 10.2802H18.0174C18.0174 8.36287 18.3282 6.51921 18.861 4.92753L16.9645 4.29265ZM16.0174 10.2802C16.0174 10.4089 16.0187 10.5376 16.0212 10.6661L18.0208 10.6267C18.0185 10.5115 18.0174 10.396 18.0174 10.2802H16.0174ZM18.0209 10.6306L18.0206 10.6124L16.0209 10.6439L16.0211 10.6622L18.0209 10.6306ZM16.0209 10.6073C16.0186 10.7189 16.0174 10.8481 16.0174 10.976H18.0174C18.0174 10.8593 18.0185 10.7443 18.0205 10.6489L16.0209 10.6073ZM16.0174 10.976C16.0174 13.1065 16.3623 15.1636 17.0033 17.1006L18.9021 16.4723C18.3269 14.7342 18.0174 12.8891 18.0174 10.976H16.0174ZM18.9145 16.5128L18.8746 16.3724L16.9509 16.9197L16.9909 17.0601L18.9145 16.5128ZM16.9725 16.9866C17.2716 17.8124 17.6121 18.4327 17.9592 18.8677C18.1321 19.0844 18.3222 19.2747 18.5284 19.4192C18.7141 19.5494 19.0104 19.7108 19.3761 19.7108V17.7108C19.5973 17.7108 19.7066 17.8027 19.6762 17.7814C19.6663 17.7744 19.6111 17.7313 19.5225 17.6204C19.3468 17.4001 19.1002 16.9881 18.853 16.3056L16.9725 16.9866ZM28.9479 10.4008H9.80421V12.4008H28.9479V10.4008ZM10.8042 11.4008V9.8555H8.80421V11.4008H10.8042ZM9.80421 10.8555H28.9478V8.8555H9.80421V10.8555ZM27.9478 9.85554L27.9479 11.4009L29.9479 11.4008L29.9478 9.85545L27.9478 9.85554Z" fill="#6148FF" mask="url(#path-1-outside-1_133_112)"/>
</svg>
