<svg width="25" height="25" viewBox="0 0 25 25" fill="none" xmlns="http://www.w3.org/2000/svg">
<g id="pajamas:notifications">
<path id="Vector" fill-rule="evenodd" clip-rule="evenodd" d="M12.4998 2C12.102 2 11.7205 2.15804 11.4392 2.43934C11.1579 2.72064 10.9998 3.10218 10.9998 3.5V3.65C9.30604 3.99632 7.78381 4.91694 6.69054 6.2562C5.59727 7.59546 5.00004 9.27117 4.99983 11V17L3.19233 18.992C2.31783 19.9565 3.00183 21.5 4.30233 21.5H9.90183C10.1651 21.956 10.5439 22.3347 10.9999 22.598C11.4559 22.8613 11.9732 22.9999 12.4998 22.9999C13.0264 22.9999 13.5437 22.8613 13.9998 22.598C14.4558 22.3347 14.8345 21.956 15.0978 21.5H20.6973C21.9978 21.5 22.6818 19.955 21.8073 18.992L19.9998 17V11C19.9996 9.27117 19.4024 7.59546 18.3091 6.2562C17.2158 4.91694 15.6936 3.99632 13.9998 3.65V3.5C13.9998 3.10218 13.8418 2.72064 13.5605 2.43934C13.2792 2.15804 12.8977 2 12.4998 2ZM7.24983 17.87L6.66483 18.512L5.99583 19.25H19.0038L18.3333 18.512L17.7498 17.8685V11C17.7498 10.3106 17.614 9.62787 17.3502 8.99091C17.0864 8.35395 16.6996 7.7752 16.2121 7.28769C15.7246 6.80018 15.1459 6.41347 14.5089 6.14963C13.872 5.8858 13.1893 5.75 12.4998 5.75C11.8104 5.75 11.1277 5.8858 10.4907 6.14963C9.85378 6.41347 9.27502 6.80018 8.78752 7.28769C8.30001 7.7752 7.9133 8.35395 7.64946 8.99091C7.38562 9.62787 7.24983 10.3106 7.24983 11V17.87Z" fill="#6148FF"/>
</g>
</svg>
